<?xml version="1.0" encoding="UTF-8" standalone="no"?>
<!DOCTYPE svg PUBLIC "-//W3C//DTD SVG 1.1//EN"
 "http://www.w3.org/Graphics/SVG/1.1/DTD/svg11.dtd">
<!-- Generated by graphviz version 14.1.1 (20251213.1925)
 -->
<!-- Title: mcp9808_interrupt_init Pages: 1 -->
<svg width="318pt" height="1008pt"
 viewBox="0.00 0.00 318.00 1008.00" xmlns="http://www.w3.org/2000/svg" xmlns:xlink="http://www.w3.org/1999/xlink">
<g id="graph0" class="graph" transform="scale(1 1) rotate(0) translate(4 1004)">
<title>mcp9808_interrupt_init</title>
<!-- Node1 -->
<g id="Node000001" class="node">
<title>Node1</title>
<g id="a_Node000001"><a xlink:title="interrupt example init">
<polygon fill="#999999" stroke="#666666" points="114.25,-546 0,-546 0,-526 114.25,-526 114.25,-546"/>
<text xml:space="preserve" text-anchor="middle" x="57.12" y="-532.5" font-family="Helvetica,sans-Serif" font-size="10.00">mcp9808_interrupt_init</text>
</a>
</g>
</g>
<!-- Node2 -->
<g id="Node000002" class="node">
<title>Node2</title>
<g id="a_Node000002"><a xlink:href="group__mcp9808__base__driver.html#ga4405db7a5e9a40e9f7535e549a28b682" target="_top" xlink:title="clear interrupt">
<polygon fill="white" stroke="#666666" points="291.5,-1000 169,-1000 169,-980 291.5,-980 291.5,-1000"/>
<text xml:space="preserve" text-anchor="middle" x="230.25" y="-986.5" font-family="Helvetica,sans-Serif" font-size="10.00">mcp9808_clear_interrupt</text>
</a>
</g>
</g>
<!-- Node1&#45;&gt;Node2 -->
<g id="edge1_Node000001_Node000002" class="edge">
<title>Node1&#45;&gt;Node2</title>
<g id="a_edge1_Node000001_Node000002"><a xlink:title=" ">
<path fill="none" stroke="#63b8ff" d="M58.84,-546.19C63.2,-605.64 88.21,-907.24 150.25,-971 152.86,-973.68 155.77,-976.01 158.9,-978.03"/>
<polygon fill="#63b8ff" stroke="#63b8ff" points="157.01,-980.99 167.5,-982.51 160.25,-974.79 157.01,-980.99"/>
</a>
</g>
</g>
<!-- Node3 -->
<g id="Node000003" class="node">
<title>Node3</title>
<g id="a_Node000003"><a xlink:href="group__mcp9808__base__driver.html#ga052fd6bbcc31c1a6557adae128581ac9" target="_top" xlink:title="close the chip">
<polygon fill="white" stroke="#666666" points="272.38,-962 188.12,-962 188.12,-942 272.38,-942 272.38,-962"/>
<text xml:space="preserve" text-anchor="middle" x="230.25" y="-948.5" font-family="Helvetica,sans-Serif" font-size="10.00">mcp9808_deinit</text>
</a>
</g>
</g>
<!-- Node1&#45;&gt;Node3 -->
<g id="edge2_Node000001_Node000003" class="edge">
<title>Node1&#45;&gt;Node3</title>
<g id="a_edge2_Node000001_Node000003"><a xlink:title=" ">
<path fill="none" stroke="#63b8ff" d="M59.08,-546.4C64.5,-603.19 93.19,-875.49 150.25,-933 157.4,-940.2 166.76,-944.86 176.54,-947.83"/>
<polygon fill="#63b8ff" stroke="#63b8ff" points="175.64,-951.21 186.18,-950.16 177.28,-944.41 175.64,-951.21"/>
</a>
</g>
</g>
<!-- Node4 -->
<g id="Node000004" class="node">
<title>Node4</title>
<g id="a_Node000004"><a xlink:href="group__mcp9808__base__driver.html#ga4948e753bd9614497b507f6299a19641" target="_top" xlink:title="initialize the chip">
<polygon fill="white" stroke="#666666" points="267.12,-924 193.38,-924 193.38,-904 267.12,-904 267.12,-924"/>
<text xml:space="preserve" text-anchor="middle" x="230.25" y="-910.5" font-family="Helvetica,sans-Serif" font-size="10.00">mcp9808_init</text>
</a>
</g>
</g>
<!-- Node1&#45;&gt;Node4 -->
<g id="edge3_Node000001_Node000004" class="edge">
<title>Node1&#45;&gt;Node4</title>
<g id="a_edge3_Node000001_Node000004"><a xlink:title=" ">
<path fill="none" stroke="#63b8ff" d="M59.36,-546.45C65.88,-600.05 98.1,-843.64 150.25,-895 158.78,-903.4 170.34,-908.32 181.98,-911.14"/>
<polygon fill="#63b8ff" stroke="#63b8ff" points="181.1,-914.54 191.58,-912.97 182.41,-907.66 181.1,-914.54"/>
</a>
</g>
</g>
<!-- Node5 -->
<g id="Node000005" class="node">
<title>Node5</title>
<g id="a_Node000005"><a xlink:href="group__mcp9808__interface__driver.html#ga442dffc32801a7d5acc73e75c6f38d73" target="_top" xlink:title="interface print format data">
<polygon fill="white" stroke="#666666" points="295.25,-886 165.25,-886 165.25,-854 295.25,-854 295.25,-886"/>
<text xml:space="preserve" text-anchor="start" x="173.25" y="-872.5" font-family="Helvetica,sans-Serif" font-size="10.00">mcp9808_interface_debug</text>
<text xml:space="preserve" text-anchor="middle" x="230.25" y="-860.5" font-family="Helvetica,sans-Serif" font-size="10.00">_print</text>
</a>
</g>
</g>
<!-- Node1&#45;&gt;Node5 -->
<g id="edge4_Node000001_Node000005" class="edge">
<title>Node1&#45;&gt;Node5</title>
<g id="a_edge4_Node000001_Node000005"><a xlink:title=" ">
<path fill="none" stroke="#63b8ff" d="M57.96,-546.21C57.83,-589.09 63.11,-756.39 150.25,-845 151.84,-846.62 153.53,-848.13 155.31,-849.54"/>
<polygon fill="#63b8ff" stroke="#63b8ff" points="153.28,-852.4 163.55,-854.99 157.14,-846.56 153.28,-852.4"/>
</a>
</g>
</g>
<!-- Node6 -->
<g id="Node000006" class="node">
<title>Node6</title>
<g id="a_Node000006"><a xlink:href="group__mcp9808__interface__driver.html#ga661059f48952c78c1e24805957d2ac48" target="_top" xlink:title="interface delay ms">
<polygon fill="white" stroke="#666666" points="303.12,-836 157.38,-836 157.38,-816 303.12,-816 303.12,-836"/>
<text xml:space="preserve" text-anchor="middle" x="230.25" y="-822.5" font-family="Helvetica,sans-Serif" font-size="10.00">mcp9808_interface_delay_ms</text>
</a>
</g>
</g>
<!-- Node1&#45;&gt;Node6 -->
<g id="edge5_Node000001_Node000006" class="edge">
<title>Node1&#45;&gt;Node6</title>
<g id="a_edge5_Node000001_Node000006"><a xlink:title=" ">
<path fill="none" stroke="#63b8ff" d="M58.29,-546.47C59.54,-586.81 69.67,-733.49 150.25,-807 151.19,-807.86 152.16,-808.67 153.16,-809.46"/>
<polygon fill="#63b8ff" stroke="#63b8ff" points="151.22,-812.37 161.53,-814.79 154.98,-806.47 151.22,-812.37"/>
</a>
</g>
</g>
<!-- Node7 -->
<g id="Node000007" class="node">
<title>Node7</title>
<g id="a_Node000007"><a xlink:href="group__mcp9808__interface__driver.html#gac53b4638b89efe5bbb9fefc452dd4be3" target="_top" xlink:title="interface iic bus deinit">
<polygon fill="white" stroke="#666666" points="287,-798 173.5,-798 173.5,-766 287,-766 287,-798"/>
<text xml:space="preserve" text-anchor="start" x="181.5" y="-784.5" font-family="Helvetica,sans-Serif" font-size="10.00">mcp9808_interface_iic</text>
<text xml:space="preserve" text-anchor="middle" x="230.25" y="-772.5" font-family="Helvetica,sans-Serif" font-size="10.00">_deinit</text>
</a>
</g>
</g>
<!-- Node1&#45;&gt;Node7 -->
<g id="edge6_Node000001_Node000007" class="edge">
<title>Node1&#45;&gt;Node7</title>
<g id="a_edge6_Node000001_Node000007"><a xlink:title=" ">
<path fill="none" stroke="#63b8ff" d="M59.32,-546.06C63.97,-580.72 84.02,-696.38 150.25,-757 154.05,-760.48 158.34,-763.48 162.9,-766.06"/>
<polygon fill="#63b8ff" stroke="#63b8ff" points="161.35,-769.2 171.88,-770.4 164.4,-762.9 161.35,-769.2"/>
</a>
</g>
</g>
<!-- Node8 -->
<g id="Node000008" class="node">
<title>Node8</title>
<g id="a_Node000008"><a xlink:href="group__mcp9808__interface__driver.html#gaef1c42ddc66da95c3c15061e505be8a3" target="_top" xlink:title="interface iic bus init">
<polygon fill="white" stroke="#666666" points="296,-748 164.5,-748 164.5,-728 296,-728 296,-748"/>
<text xml:space="preserve" text-anchor="middle" x="230.25" y="-734.5" font-family="Helvetica,sans-Serif" font-size="10.00">mcp9808_interface_iic_init</text>
</a>
</g>
</g>
<!-- Node1&#45;&gt;Node8 -->
<g id="edge7_Node000001_Node000008" class="edge">
<title>Node1&#45;&gt;Node8</title>
<g id="a_edge7_Node000001_Node000008"><a xlink:title=" ">
<path fill="none" stroke="#63b8ff" d="M60.12,-546.21C66.76,-577.4 91.15,-672.16 150.25,-719 151.6,-720.07 153,-721.08 154.44,-722.03"/>
<polygon fill="#63b8ff" stroke="#63b8ff" points="152.71,-725.08 163.16,-726.83 156.08,-718.94 152.71,-725.08"/>
</a>
</g>
</g>
<!-- Node9 -->
<g id="Node000009" class="node">
<title>Node9</title>
<g id="a_Node000009"><a xlink:href="group__mcp9808__interface__driver.html#gaa6474c6813d2b00e1031e0da4dadeabc" target="_top" xlink:title="interface iic bus read">
<polygon fill="white" stroke="#666666" points="299,-710 161.5,-710 161.5,-690 299,-690 299,-710"/>
<text xml:space="preserve" text-anchor="middle" x="230.25" y="-696.5" font-family="Helvetica,sans-Serif" font-size="10.00">mcp9808_interface_iic_read</text>
</a>
</g>
</g>
<!-- Node1&#45;&gt;Node9 -->
<g id="edge8_Node000001_Node000009" class="edge">
<title>Node1&#45;&gt;Node9</title>
<g id="a_edge8_Node000001_Node000009"><a xlink:title=" ">
<path fill="none" stroke="#63b8ff" d="M61.57,-546.35C71.07,-573.16 100.26,-645.28 150.25,-681 152.06,-682.29 153.94,-683.5 155.89,-684.62"/>
<polygon fill="#63b8ff" stroke="#63b8ff" points="154.16,-687.67 164.68,-688.92 157.23,-681.38 154.16,-687.67"/>
</a>
</g>
</g>
<!-- Node10 -->
<g id="Node000010" class="node">
<title>Node10</title>
<g id="a_Node000010"><a xlink:href="group__mcp9808__interface__driver.html#ga49d7e48e5875f1bab07c3134759f882b" target="_top" xlink:title="interface iic bus write">
<polygon fill="white" stroke="#666666" points="287,-672 173.5,-672 173.5,-640 287,-640 287,-672"/>
<text xml:space="preserve" text-anchor="start" x="181.5" y="-658.5" font-family="Helvetica,sans-Serif" font-size="10.00">mcp9808_interface_iic</text>
<text xml:space="preserve" text-anchor="middle" x="230.25" y="-646.5" font-family="Helvetica,sans-Serif" font-size="10.00">_write</text>
</a>
</g>
</g>
<!-- Node1&#45;&gt;Node10 -->
<g id="edge9_Node000001_Node000010" class="edge">
<title>Node1&#45;&gt;Node10</title>
<g id="a_edge9_Node000001_Node000010"><a xlink:title=" ">
<path fill="none" stroke="#63b8ff" d="M65.48,-546.5C79.67,-565.97 112.73,-607.81 150.25,-631 154.24,-633.47 158.5,-635.71 162.89,-637.75"/>
<polygon fill="#63b8ff" stroke="#63b8ff" points="161.35,-640.9 171.92,-641.55 164.06,-634.45 161.35,-640.9"/>
</a>
</g>
</g>
<!-- Node11 -->
<g id="Node000011" class="node">
<title>Node11</title>
<g id="a_Node000011"><a xlink:href="group__mcp9808__base__driver.html#gad8ebd3fbad4521ecb0485a8d4bb95b92" target="_top" xlink:title="set the iic address">
<polygon fill="white" stroke="#666666" points="279.5,-622 181,-622 181,-602 279.5,-602 279.5,-622"/>
<text xml:space="preserve" text-anchor="middle" x="230.25" y="-608.5" font-family="Helvetica,sans-Serif" font-size="10.00">mcp9808_set_addr</text>
</a>
</g>
</g>
<!-- Node1&#45;&gt;Node11 -->
<g id="edge10_Node000001_Node000011" class="edge">
<title>Node1&#45;&gt;Node11</title>
<g id="a_edge10_Node000001_Node000011"><a xlink:title=" ">
<path fill="none" stroke="#63b8ff" d="M71.73,-546.36C89.07,-559.1 120.39,-580.55 150.25,-593 156.57,-595.64 163.34,-597.96 170.15,-599.98"/>
<polygon fill="#63b8ff" stroke="#63b8ff" points="168.82,-603.25 179.39,-602.53 170.68,-596.5 168.82,-603.25"/>
</a>
</g>
</g>
<!-- Node12 -->
<g id="Node000012" class="node">
<title>Node12</title>
<g id="a_Node000012"><a xlink:href="group__mcp9808__base__driver.html#ga8d48fdfd765768f59bd8f48bf8537c18" target="_top" xlink:title="enable or disable alert output">
<polygon fill="white" stroke="#666666" points="295.62,-584 164.88,-584 164.88,-564 295.62,-564 295.62,-584"/>
<text xml:space="preserve" text-anchor="middle" x="230.25" y="-570.5" font-family="Helvetica,sans-Serif" font-size="10.00">mcp9808_set_alert_output</text>
</a>
</g>
</g>
<!-- Node1&#45;&gt;Node12 -->
<g id="edge11_Node000001_Node000012" class="edge">
<title>Node1&#45;&gt;Node12</title>
<g id="a_edge11_Node000001_Node000012"><a xlink:title=" ">
<path fill="none" stroke="#63b8ff" d="M105.34,-546.48C125.73,-551.01 149.78,-556.35 171.24,-561.12"/>
<polygon fill="#63b8ff" stroke="#63b8ff" points="170.19,-564.47 180.71,-563.22 171.71,-557.64 170.19,-564.47"/>
</a>
</g>
</g>
<!-- Node13 -->
<g id="Node000013" class="node">
<title>Node13</title>
<g id="a_Node000013"><a xlink:href="group__mcp9808__base__driver.html#gaa13182a2d9321146012947a6b744e616" target="_top" xlink:title="set alert output mode">
<polygon fill="white" stroke="#666666" points="310.25,-546 150.25,-546 150.25,-526 310.25,-526 310.25,-546"/>
<text xml:space="preserve" text-anchor="middle" x="230.25" y="-532.5" font-family="Helvetica,sans-Serif" font-size="10.00">mcp9808_set_alert_output_mode</text>
</a>
</g>
</g>
<!-- Node1&#45;&gt;Node13 -->
<g id="edge12_Node000001_Node000013" class="edge">
<title>Node1&#45;&gt;Node13</title>
<g id="a_edge12_Node000001_Node000013"><a xlink:title=" ">
<path fill="none" stroke="#63b8ff" d="M114.63,-536C122.31,-536 130.34,-536 138.43,-536"/>
<polygon fill="#63b8ff" stroke="#63b8ff" points="138.37,-539.5 148.37,-536 138.37,-532.5 138.37,-539.5"/>
</a>
</g>
</g>
<!-- Node14 -->
<g id="Node000014" class="node">
<title>Node14</title>
<g id="a_Node000014"><a xlink:href="group__mcp9808__base__driver.html#gad9880a0cb761d77e8a18d34c77653c03" target="_top" xlink:title="set alert output polarity">
<polygon fill="white" stroke="#666666" points="295.62,-508 164.88,-508 164.88,-476 295.62,-476 295.62,-508"/>
<text xml:space="preserve" text-anchor="start" x="172.88" y="-494.5" font-family="Helvetica,sans-Serif" font-size="10.00">mcp9808_set_alert_output</text>
<text xml:space="preserve" text-anchor="middle" x="230.25" y="-482.5" font-family="Helvetica,sans-Serif" font-size="10.00">_polarity</text>
</a>
</g>
</g>
<!-- Node1&#45;&gt;Node14 -->
<g id="edge13_Node000001_Node000014" class="edge">
<title>Node1&#45;&gt;Node14</title>
<g id="a_edge13_Node000001_Node000014"><a xlink:title=" ">
<path fill="none" stroke="#63b8ff" d="M98.68,-525.57C115.29,-521.3 135.05,-516.22 154.12,-511.32"/>
<polygon fill="#63b8ff" stroke="#63b8ff" points="154.96,-514.72 163.77,-508.84 153.22,-507.94 154.96,-514.72"/>
</a>
</g>
</g>
<!-- Node15 -->
<g id="Node000015" class="node">
<title>Node15</title>
<g id="a_Node000015"><a xlink:href="group__mcp9808__base__driver.html#gaf30d49657557a1c51148700db6054478" target="_top" xlink:title="set alert output select">
<polygon fill="white" stroke="#666666" points="295.62,-458 164.88,-458 164.88,-426 295.62,-426 295.62,-458"/>
<text xml:space="preserve" text-anchor="start" x="172.88" y="-444.5" font-family="Helvetica,sans-Serif" font-size="10.00">mcp9808_set_alert_output</text>
<text xml:space="preserve" text-anchor="middle" x="230.25" y="-432.5" font-family="Helvetica,sans-Serif" font-size="10.00">_select</text>
</a>
</g>
</g>
<!-- Node1&#45;&gt;Node15 -->
<g id="edge14_Node000001_Node000015" class="edge">
<title>Node1&#45;&gt;Node15</title>
<g id="a_edge14_Node000001_Node000015"><a xlink:title=" ">
<path fill="none" stroke="#63b8ff" d="M69.2,-525.71C85.71,-510.87 118.26,-483.44 150.25,-467 153.13,-465.52 156.11,-464.11 159.16,-462.76"/>
<polygon fill="#63b8ff" stroke="#63b8ff" points="160.38,-466.05 168.3,-459.02 157.72,-459.57 160.38,-466.05"/>
</a>
</g>
</g>
<!-- Node16 -->
<g id="Node000016" class="node">
<title>Node16</title>
<g id="a_Node000016"><a xlink:href="group__mcp9808__base__driver.html#gaec702c12b9f8f5114b6c4b4bf61c32b0" target="_top" xlink:title="set critical temperature">
<polygon fill="white" stroke="#666666" points="284.38,-408 176.12,-408 176.12,-376 284.38,-376 284.38,-408"/>
<text xml:space="preserve" text-anchor="start" x="184.12" y="-394.5" font-family="Helvetica,sans-Serif" font-size="10.00">mcp9808_set_critical</text>
<text xml:space="preserve" text-anchor="middle" x="230.25" y="-382.5" font-family="Helvetica,sans-Serif" font-size="10.00">_temperature</text>
</a>
</g>
</g>
<!-- Node1&#45;&gt;Node16 -->
<g id="edge15_Node000001_Node000016" class="edge">
<title>Node1&#45;&gt;Node16</title>
<g id="a_edge15_Node000001_Node000016"><a xlink:title=" ">
<path fill="none" stroke="#63b8ff" d="M63.27,-525.7C75.27,-502.71 107.4,-446.9 150.25,-417 154.92,-413.74 160.04,-410.89 165.35,-408.4"/>
<polygon fill="#63b8ff" stroke="#63b8ff" points="166.48,-411.72 174.35,-404.63 163.78,-405.27 166.48,-411.72"/>
</a>
</g>
</g>
<!-- Node17 -->
<g id="Node000017" class="node">
<title>Node17</title>
<g id="a_Node000017"><a xlink:href="group__mcp9808__base__driver.html#ga7e8a6499c3b853834486651a093798bf" target="_top" xlink:title="enable or disable critical temperature lock">
<polygon fill="white" stroke="#666666" points="284.38,-358 176.12,-358 176.12,-326 284.38,-326 284.38,-358"/>
<text xml:space="preserve" text-anchor="start" x="184.12" y="-344.5" font-family="Helvetica,sans-Serif" font-size="10.00">mcp9808_set_critical</text>
<text xml:space="preserve" text-anchor="middle" x="230.25" y="-332.5" font-family="Helvetica,sans-Serif" font-size="10.00">_temperature_lock</text>
</a>
</g>
</g>
<!-- Node1&#45;&gt;Node17 -->
<g id="edge16_Node000001_Node000017" class="edge">
<title>Node1&#45;&gt;Node17</title>
<g id="a_edge16_Node000001_Node000017"><a xlink:title=" ">
<path fill="none" stroke="#63b8ff" d="M60.73,-525.91C68.79,-496.76 96.09,-411.62 150.25,-367 154.9,-363.17 160.14,-359.92 165.66,-357.17"/>
<polygon fill="#63b8ff" stroke="#63b8ff" points="166.66,-360.55 174.43,-353.34 163.86,-354.14 166.66,-360.55"/>
</a>
</g>
</g>
<!-- Node18 -->
<g id="Node000018" class="node">
<title>Node18</title>
<g id="a_Node000018"><a xlink:href="group__mcp9808__base__driver.html#ga58f27faaba9c40c339943a779f9bc0eb" target="_top" xlink:title="set resolution">
<polygon fill="white" stroke="#666666" points="291.12,-308 169.38,-308 169.38,-288 291.12,-288 291.12,-308"/>
<text xml:space="preserve" text-anchor="middle" x="230.25" y="-294.5" font-family="Helvetica,sans-Serif" font-size="10.00">mcp9808_set_resolution</text>
</a>
</g>
</g>
<!-- Node1&#45;&gt;Node18 -->
<g id="edge17_Node000001_Node000018" class="edge">
<title>Node1&#45;&gt;Node18</title>
<g id="a_edge17_Node000001_Node000018"><a xlink:title=" ">
<path fill="none" stroke="#63b8ff" d="M59.23,-525.61C63.54,-490.4 82.51,-374.56 150.25,-317 152.91,-314.74 155.78,-312.75 158.82,-310.98"/>
<polygon fill="#63b8ff" stroke="#63b8ff" points="160.11,-314.24 167.59,-306.74 157.06,-307.94 160.11,-314.24"/>
</a>
</g>
</g>
<!-- Node19 -->
<g id="Node000019" class="node">
<title>Node19</title>
<g id="a_Node000019"><a xlink:href="group__mcp9808__base__driver.html#ga44f5edf11a595b01bf01fdf961872173" target="_top" xlink:title="enable or disable shutdown">
<polygon fill="white" stroke="#666666" points="291.12,-270 169.38,-270 169.38,-250 291.12,-250 291.12,-270"/>
<text xml:space="preserve" text-anchor="middle" x="230.25" y="-256.5" font-family="Helvetica,sans-Serif" font-size="10.00">mcp9808_set_shutdown</text>
</a>
</g>
</g>
<!-- Node1&#45;&gt;Node19 -->
<g id="edge18_Node000001_Node000019" class="edge">
<title>Node1&#45;&gt;Node19</title>
<g id="a_edge18_Node000001_Node000019"><a xlink:title=" ">
<path fill="none" stroke="#63b8ff" d="M58.51,-525.52C60.56,-486.48 73.17,-348.17 150.25,-279 152.89,-276.63 155.78,-274.54 158.84,-272.7"/>
<polygon fill="#63b8ff" stroke="#63b8ff" points="160.33,-275.87 167.75,-268.3 157.23,-269.59 160.33,-275.87"/>
</a>
</g>
</g>
<!-- Node20 -->
<g id="Node000020" class="node">
<title>Node20</title>
<g id="a_Node000020"><a xlink:href="group__mcp9808__base__driver.html#ga33495ad08da003630ce2b32bd6e5c2af" target="_top" xlink:title="set temperature high threshold">
<polygon fill="white" stroke="#666666" points="296,-232 164.5,-232 164.5,-200 296,-200 296,-232"/>
<text xml:space="preserve" text-anchor="start" x="172.5" y="-218.5" font-family="Helvetica,sans-Serif" font-size="10.00">mcp9808_set_temperature</text>
<text xml:space="preserve" text-anchor="middle" x="230.25" y="-206.5" font-family="Helvetica,sans-Serif" font-size="10.00">_high_threshold</text>
</a>
</g>
</g>
<!-- Node1&#45;&gt;Node20 -->
<g id="edge19_Node000001_Node000020" class="edge">
<title>Node1&#45;&gt;Node20</title>
<g id="a_edge19_Node000001_Node000020"><a xlink:title=" ">
<path fill="none" stroke="#63b8ff" d="M58.13,-525.68C58.71,-483.82 66.56,-325.01 150.25,-241 151.65,-239.6 153.12,-238.28 154.66,-237.03"/>
<polygon fill="#63b8ff" stroke="#63b8ff" points="156.52,-239.99 162.85,-231.5 152.6,-234.19 156.52,-239.99"/>
</a>
</g>
</g>
<!-- Node21 -->
<g id="Node000021" class="node">
<title>Node21</title>
<g id="a_Node000021"><a xlink:href="group__mcp9808__base__driver.html#ga9e3568b25af43f2b0b584071c46bd96e" target="_top" xlink:title="set temperature low threshold">
<polygon fill="white" stroke="#666666" points="296,-182 164.5,-182 164.5,-150 296,-150 296,-182"/>
<text xml:space="preserve" text-anchor="start" x="172.5" y="-168.5" font-family="Helvetica,sans-Serif" font-size="10.00">mcp9808_set_temperature</text>
<text xml:space="preserve" text-anchor="middle" x="230.25" y="-156.5" font-family="Helvetica,sans-Serif" font-size="10.00">_low_threshold</text>
</a>
</g>
</g>
<!-- Node1&#45;&gt;Node21 -->
<g id="edge20_Node000001_Node000021" class="edge">
<title>Node1&#45;&gt;Node21</title>
<g id="a_edge20_Node000001_Node000021"><a xlink:title=" ">
<path fill="none" stroke="#63b8ff" d="M59.53,-525.68C66.8,-473.79 101.64,-241.87 150.25,-191 151.78,-189.4 153.41,-187.9 155.12,-186.5"/>
<polygon fill="#63b8ff" stroke="#63b8ff" points="156.75,-189.63 163.05,-181.11 152.81,-183.84 156.75,-189.63"/>
</a>
</g>
</g>
<!-- Node22 -->
<g id="Node000022" class="node">
<title>Node22</title>
<g id="a_Node000022"><a xlink:href="group__mcp9808__base__driver.html#gabf7c333da8166d338d6d939d5bd4a58b" target="_top" xlink:title="set temperature threshold hysteresis">
<polygon fill="white" stroke="#666666" points="296,-132 164.5,-132 164.5,-100 296,-100 296,-132"/>
<text xml:space="preserve" text-anchor="start" x="172.5" y="-118.5" font-family="Helvetica,sans-Serif" font-size="10.00">mcp9808_set_temperature</text>
<text xml:space="preserve" text-anchor="middle" x="230.25" y="-106.5" font-family="Helvetica,sans-Serif" font-size="10.00">_threshold_hysteresis</text>
</a>
</g>
</g>
<!-- Node1&#45;&gt;Node22 -->
<g id="edge21_Node000001_Node000022" class="edge">
<title>Node1&#45;&gt;Node22</title>
<g id="a_edge21_Node000001_Node000022"><a xlink:title=" ">
<path fill="none" stroke="#63b8ff" d="M59.16,-525.72C64.98,-469.56 95.49,-200.17 150.25,-141 151.75,-139.38 153.36,-137.86 155.05,-136.44"/>
<polygon fill="#63b8ff" stroke="#63b8ff" points="156.69,-139.56 162.91,-130.98 152.7,-133.81 156.69,-139.56"/>
</a>
</g>
</g>
<!-- Node23 -->
<g id="Node000023" class="node">
<title>Node23</title>
<g id="a_Node000023"><a xlink:href="group__mcp9808__base__driver.html#gaac5c1a227eefefb73b923336c14e3eb7" target="_top" xlink:title="enable or disable temperature threshold lock">
<polygon fill="white" stroke="#666666" points="296,-82 164.5,-82 164.5,-50 296,-50 296,-82"/>
<text xml:space="preserve" text-anchor="start" x="172.5" y="-68.5" font-family="Helvetica,sans-Serif" font-size="10.00">mcp9808_set_temperature</text>
<text xml:space="preserve" text-anchor="middle" x="230.25" y="-56.5" font-family="Helvetica,sans-Serif" font-size="10.00">_threshold_lock</text>
</a>
</g>
</g>
<!-- Node1&#45;&gt;Node23 -->
<g id="edge22_Node000001_Node000023" class="edge">
<title>Node1&#45;&gt;Node23</title>
<g id="a_edge22_Node000001_Node000023"><a xlink:title=" ">
<path fill="none" stroke="#63b8ff" d="M58.87,-525.64C63.43,-465.21 89.33,-158.5 150.25,-91 151.73,-89.36 153.32,-87.82 155,-86.39"/>
<polygon fill="#63b8ff" stroke="#63b8ff" points="156.65,-89.51 162.8,-80.89 152.61,-83.79 156.65,-89.51"/>
</a>
</g>
</g>
<!-- Node24 -->
<g id="Node000024" class="node">
<title>Node24</title>
<g id="a_Node000024"><a xlink:href="group__mcp9808__base__driver.html#gade403dff13b195adc914f486f8543f2a" target="_top" xlink:title="convert the temperature to the register raw data">
<polygon fill="white" stroke="#666666" points="286.62,-32 173.88,-32 173.88,0 286.62,0 286.62,-32"/>
<text xml:space="preserve" text-anchor="start" x="181.88" y="-18.5" font-family="Helvetica,sans-Serif" font-size="10.00">mcp9808_temperature</text>
<text xml:space="preserve" text-anchor="middle" x="230.25" y="-6.5" font-family="Helvetica,sans-Serif" font-size="10.00">_convert_to_register</text>
</a>
</g>
</g>
<!-- Node1&#45;&gt;Node24 -->
<g id="edge23_Node000001_Node000024" class="edge">
<title>Node1&#45;&gt;Node24</title>
<g id="a_edge23_Node000001_Node000024"><a xlink:title=" ">
<path fill="none" stroke="#63b8ff" d="M58.63,-525.77C61.99,-461.78 83.07,-116.95 150.25,-41 154.08,-36.67 158.66,-33.08 163.66,-30.11"/>
<polygon fill="#63b8ff" stroke="#63b8ff" points="164.94,-33.38 172.33,-25.79 161.82,-27.11 164.94,-33.38"/>
</a>
</g>
</g>
</g>
</svg>
