<?xml version="1.0" encoding="UTF-8" standalone="no"?>
<!DOCTYPE svg PUBLIC "-//W3C//DTD SVG 1.1//EN"
 "http://www.w3.org/Graphics/SVG/1.1/DTD/svg11.dtd">
<!-- Generated by graphviz version 14.1.1 (20251213.1925)
 -->
<!-- Title: mcp9808_basic_init Pages: 1 -->
<svg width="458pt" height="670pt"
 viewBox="0.00 0.00 458.00 670.00" xmlns="http://www.w3.org/2000/svg" xmlns:xlink="http://www.w3.org/1999/xlink">
<g id="graph0" class="graph" transform="scale(1 1) rotate(0) translate(4 666)">
<title>mcp9808_basic_init</title>
<!-- Node1 -->
<g id="Node000001" class="node">
<title>Node1</title>
<g id="a_Node000001"><a xlink:title="basic example init">
<polygon fill="#999999" stroke="#666666" points="102.25,-353 0,-353 0,-333 102.25,-333 102.25,-353"/>
<text xml:space="preserve" text-anchor="middle" x="51.12" y="-339.5" font-family="Helvetica,sans-Serif" font-size="10.00">mcp9808_basic_init</text>
</a>
</g>
</g>
<!-- Node2 -->
<g id="Node000002" class="node">
<title>Node2</title>
<g id="a_Node000002"><a xlink:href="group__mcp9808__base__driver.html#ga052fd6bbcc31c1a6557adae128581ac9" target="_top" xlink:title="close the chip">
<polygon fill="white" stroke="#666666" points="253.25,-662 169,-662 169,-642 253.25,-642 253.25,-662"/>
<text xml:space="preserve" text-anchor="middle" x="211.12" y="-648.5" font-family="Helvetica,sans-Serif" font-size="10.00">mcp9808_deinit</text>
</a>
</g>
</g>
<!-- Node1&#45;&gt;Node2 -->
<g id="edge1_Node000001_Node000002" class="edge">
<title>Node1&#45;&gt;Node2</title>
<g id="a_edge1_Node000001_Node000002"><a xlink:title=" ">
<path fill="none" stroke="#63b8ff" d="M51.84,-353.25C51.29,-394.78 54.94,-552.18 138.25,-633 143.79,-638.37 150.66,-642.27 157.94,-645.1"/>
<polygon fill="#63b8ff" stroke="#63b8ff" points="156.76,-648.39 167.35,-648.05 158.86,-641.72 156.76,-648.39"/>
</a>
</g>
</g>
<!-- Node3 -->
<g id="Node000003" class="node">
<title>Node3</title>
<g id="a_Node000003"><a xlink:href="group__mcp9808__base__driver.html#ga4948e753bd9614497b507f6299a19641" target="_top" xlink:title="initialize the chip">
<polygon fill="white" stroke="#666666" points="248,-624 174.25,-624 174.25,-604 248,-604 248,-624"/>
<text xml:space="preserve" text-anchor="middle" x="211.12" y="-610.5" font-family="Helvetica,sans-Serif" font-size="10.00">mcp9808_init</text>
</a>
</g>
</g>
<!-- Node1&#45;&gt;Node3 -->
<g id="edge2_Node000001_Node000003" class="edge">
<title>Node1&#45;&gt;Node3</title>
<g id="a_edge2_Node000001_Node000003"><a xlink:title=" ">
<path fill="none" stroke="#63b8ff" d="M52.61,-353.37C54.94,-390.84 67.94,-520.62 138.25,-590 145.11,-596.77 153.94,-601.64 163.05,-605.13"/>
<polygon fill="#63b8ff" stroke="#63b8ff" points="161.73,-608.38 172.32,-608.16 163.9,-601.72 161.73,-608.38"/>
</a>
</g>
</g>
<!-- Node4 -->
<g id="Node000004" class="node">
<title>Node4</title>
<g id="a_Node000004"><a xlink:href="group__mcp9808__interface__driver.html#ga442dffc32801a7d5acc73e75c6f38d73" target="_top" xlink:title="interface print format data">
<polygon fill="white" stroke="#666666" points="450,-463 320,-463 320,-431 450,-431 450,-463"/>
<text xml:space="preserve" text-anchor="start" x="328" y="-449.5" font-family="Helvetica,sans-Serif" font-size="10.00">mcp9808_interface_debug</text>
<text xml:space="preserve" text-anchor="middle" x="385" y="-437.5" font-family="Helvetica,sans-Serif" font-size="10.00">_print</text>
</a>
</g>
</g>
<!-- Node1&#45;&gt;Node4 -->
<g id="edge3_Node000001_Node000004" class="edge">
<title>Node1&#45;&gt;Node4</title>
<g id="a_edge3_Node000001_Node000004"><a xlink:title=" ">
<path fill="none" stroke="#63b8ff" d="M52.53,-353.49C54.54,-389.52 66.57,-508.58 138.25,-557 191.93,-593.26 224.76,-583.21 284,-557 322.72,-539.87 352.88,-499.53 369.55,-472.75"/>
<polygon fill="#63b8ff" stroke="#63b8ff" points="372.34,-474.9 374.49,-464.53 366.34,-471.3 372.34,-474.9"/>
</a>
</g>
</g>
<!-- Node5 -->
<g id="Node000005" class="node">
<title>Node5</title>
<g id="a_Node000005"><a xlink:href="group__mcp9808__interface__driver.html#ga661059f48952c78c1e24805957d2ac48" target="_top" xlink:title="interface delay ms">
<polygon fill="white" stroke="#666666" points="284,-548 138.25,-548 138.25,-528 284,-528 284,-548"/>
<text xml:space="preserve" text-anchor="middle" x="211.12" y="-534.5" font-family="Helvetica,sans-Serif" font-size="10.00">mcp9808_interface_delay_ms</text>
</a>
</g>
</g>
<!-- Node1&#45;&gt;Node5 -->
<g id="edge4_Node000001_Node000005" class="edge">
<title>Node1&#45;&gt;Node5</title>
<g id="a_edge4_Node000001_Node000005"><a xlink:title=" ">
<path fill="none" stroke="#63b8ff" d="M54.03,-353.18C60.23,-383.43 82.76,-473.47 138.25,-519 139.56,-520.07 140.92,-521.09 142.33,-522.05"/>
<polygon fill="#63b8ff" stroke="#63b8ff" points="140.45,-525 150.88,-526.83 143.87,-518.89 140.45,-525"/>
</a>
</g>
</g>
<!-- Node6 -->
<g id="Node000006" class="node">
<title>Node6</title>
<g id="a_Node000006"><a xlink:href="group__mcp9808__interface__driver.html#gac53b4638b89efe5bbb9fefc452dd4be3" target="_top" xlink:title="interface iic bus deinit">
<polygon fill="white" stroke="#666666" points="267.88,-510 154.38,-510 154.38,-478 267.88,-478 267.88,-510"/>
<text xml:space="preserve" text-anchor="start" x="162.38" y="-496.5" font-family="Helvetica,sans-Serif" font-size="10.00">mcp9808_interface_iic</text>
<text xml:space="preserve" text-anchor="middle" x="211.12" y="-484.5" font-family="Helvetica,sans-Serif" font-size="10.00">_deinit</text>
</a>
</g>
</g>
<!-- Node1&#45;&gt;Node6 -->
<g id="edge5_Node000001_Node000006" class="edge">
<title>Node1&#45;&gt;Node6</title>
<g id="a_edge5_Node000001_Node000006"><a xlink:title=" ">
<path fill="none" stroke="#63b8ff" d="M56.49,-353.47C66.98,-377.42 95.95,-436.64 138.25,-469 140.21,-470.5 142.27,-471.91 144.4,-473.25"/>
<polygon fill="#63b8ff" stroke="#63b8ff" points="142.35,-476.11 152.8,-477.86 145.71,-469.98 142.35,-476.11"/>
</a>
</g>
</g>
<!-- Node7 -->
<g id="Node000007" class="node">
<title>Node7</title>
<g id="a_Node000007"><a xlink:href="group__mcp9808__interface__driver.html#gaef1c42ddc66da95c3c15061e505be8a3" target="_top" xlink:title="interface iic bus init">
<polygon fill="white" stroke="#666666" points="276.88,-460 145.38,-460 145.38,-440 276.88,-440 276.88,-460"/>
<text xml:space="preserve" text-anchor="middle" x="211.12" y="-446.5" font-family="Helvetica,sans-Serif" font-size="10.00">mcp9808_interface_iic_init</text>
</a>
</g>
</g>
<!-- Node1&#45;&gt;Node7 -->
<g id="edge6_Node000001_Node000007" class="edge">
<title>Node1&#45;&gt;Node7</title>
<g id="a_edge6_Node000001_Node000007"><a xlink:title=" ">
<path fill="none" stroke="#63b8ff" d="M59.35,-353.46C72.71,-371.99 103.15,-410.56 138.25,-431 141.02,-432.61 143.93,-434.09 146.93,-435.45"/>
<polygon fill="#63b8ff" stroke="#63b8ff" points="145.38,-438.6 155.96,-439.04 147.96,-432.09 145.38,-438.6"/>
</a>
</g>
</g>
<!-- Node8 -->
<g id="Node000008" class="node">
<title>Node8</title>
<g id="a_Node000008"><a xlink:href="group__mcp9808__interface__driver.html#gaa6474c6813d2b00e1031e0da4dadeabc" target="_top" xlink:title="interface iic bus read">
<polygon fill="white" stroke="#666666" points="279.88,-422 142.38,-422 142.38,-402 279.88,-402 279.88,-422"/>
<text xml:space="preserve" text-anchor="middle" x="211.12" y="-408.5" font-family="Helvetica,sans-Serif" font-size="10.00">mcp9808_interface_iic_read</text>
</a>
</g>
</g>
<!-- Node1&#45;&gt;Node8 -->
<g id="edge7_Node000001_Node000008" class="edge">
<title>Node1&#45;&gt;Node8</title>
<g id="a_edge7_Node000001_Node000008"><a xlink:title=" ">
<path fill="none" stroke="#63b8ff" d="M67.04,-353.33C83.73,-364.48 111.89,-382.1 138.25,-393 142.8,-394.88 147.59,-396.63 152.45,-398.23"/>
<polygon fill="#63b8ff" stroke="#63b8ff" points="151.09,-401.47 161.68,-401.07 153.15,-394.78 151.09,-401.47"/>
</a>
</g>
</g>
<!-- Node9 -->
<g id="Node000009" class="node">
<title>Node9</title>
<g id="a_Node000009"><a xlink:href="group__mcp9808__interface__driver.html#ga49d7e48e5875f1bab07c3134759f882b" target="_top" xlink:title="interface iic bus write">
<polygon fill="white" stroke="#666666" points="267.88,-384 154.38,-384 154.38,-352 267.88,-352 267.88,-384"/>
<text xml:space="preserve" text-anchor="start" x="162.38" y="-370.5" font-family="Helvetica,sans-Serif" font-size="10.00">mcp9808_interface_iic</text>
<text xml:space="preserve" text-anchor="middle" x="211.12" y="-358.5" font-family="Helvetica,sans-Serif" font-size="10.00">_write</text>
</a>
</g>
</g>
<!-- Node1&#45;&gt;Node9 -->
<g id="edge8_Node000001_Node000009" class="edge">
<title>Node1&#45;&gt;Node9</title>
<g id="a_edge8_Node000001_Node000009"><a xlink:title=" ">
<path fill="none" stroke="#63b8ff" d="M102.55,-350.98C115.39,-353.01 129.4,-355.23 142.93,-357.37"/>
<polygon fill="#63b8ff" stroke="#63b8ff" points="142.23,-360.8 152.66,-358.91 143.33,-353.89 142.23,-360.8"/>
</a>
</g>
</g>
<!-- Node10 -->
<g id="Node000010" class="node">
<title>Node10</title>
<g id="a_Node000010"><a xlink:href="group__mcp9808__interface__driver.html#ga56c34892e809d5eabd9358db0a165d1e" target="_top" xlink:title="interface receive callback">
<polygon fill="white" stroke="#666666" points="278.75,-334 143.5,-334 143.5,-302 278.75,-302 278.75,-334"/>
<text xml:space="preserve" text-anchor="start" x="151.5" y="-320.5" font-family="Helvetica,sans-Serif" font-size="10.00">mcp9808_interface_receive</text>
<text xml:space="preserve" text-anchor="middle" x="211.12" y="-308.5" font-family="Helvetica,sans-Serif" font-size="10.00">_callback</text>
</a>
</g>
</g>
<!-- Node1&#45;&gt;Node10 -->
<g id="edge9_Node000001_Node000010" class="edge">
<title>Node1&#45;&gt;Node10</title>
<g id="a_edge9_Node000001_Node000010"><a xlink:title=" ">
<path fill="none" stroke="#63b8ff" d="M102.55,-335.02C111.93,-333.54 121.94,-331.95 131.93,-330.37"/>
<polygon fill="#63b8ff" stroke="#63b8ff" points="132.34,-333.85 141.67,-328.83 131.24,-326.94 132.34,-333.85"/>
</a>
</g>
</g>
<!-- Node11 -->
<g id="Node000011" class="node">
<title>Node11</title>
<g id="a_Node000011"><a xlink:href="group__mcp9808__base__driver.html#gad8ebd3fbad4521ecb0485a8d4bb95b92" target="_top" xlink:title="set the iic address">
<polygon fill="white" stroke="#666666" points="260.38,-284 161.88,-284 161.88,-264 260.38,-264 260.38,-284"/>
<text xml:space="preserve" text-anchor="middle" x="211.12" y="-270.5" font-family="Helvetica,sans-Serif" font-size="10.00">mcp9808_set_addr</text>
</a>
</g>
</g>
<!-- Node1&#45;&gt;Node11 -->
<g id="edge11_Node000001_Node000011" class="edge">
<title>Node1&#45;&gt;Node11</title>
<g id="a_edge11_Node000001_Node000011"><a xlink:title=" ">
<path fill="none" stroke="#63b8ff" d="M67.04,-332.67C83.73,-321.52 111.89,-303.9 138.25,-293 142.8,-291.12 147.59,-289.37 152.45,-287.77"/>
<polygon fill="#63b8ff" stroke="#63b8ff" points="153.15,-291.22 161.68,-284.93 151.09,-284.53 153.15,-291.22"/>
</a>
</g>
</g>
<!-- Node12 -->
<g id="Node000012" class="node">
<title>Node12</title>
<g id="a_Node000012"><a xlink:href="group__mcp9808__base__driver.html#ga8d48fdfd765768f59bd8f48bf8537c18" target="_top" xlink:title="enable or disable alert output">
<polygon fill="white" stroke="#666666" points="276.5,-246 145.75,-246 145.75,-226 276.5,-226 276.5,-246"/>
<text xml:space="preserve" text-anchor="middle" x="211.12" y="-232.5" font-family="Helvetica,sans-Serif" font-size="10.00">mcp9808_set_alert_output</text>
</a>
</g>
</g>
<!-- Node1&#45;&gt;Node12 -->
<g id="edge12_Node000001_Node000012" class="edge">
<title>Node1&#45;&gt;Node12</title>
<g id="a_edge12_Node000001_Node000012"><a xlink:title=" ">
<path fill="none" stroke="#63b8ff" d="M59.35,-332.54C72.71,-314.01 103.15,-275.44 138.25,-255 141.02,-253.39 143.93,-251.91 146.93,-250.55"/>
<polygon fill="#63b8ff" stroke="#63b8ff" points="147.96,-253.91 155.96,-246.96 145.38,-247.4 147.96,-253.91"/>
</a>
</g>
</g>
<!-- Node13 -->
<g id="Node000013" class="node">
<title>Node13</title>
<g id="a_Node000013"><a xlink:href="group__mcp9808__base__driver.html#ga7e8a6499c3b853834486651a093798bf" target="_top" xlink:title="enable or disable critical temperature lock">
<polygon fill="white" stroke="#666666" points="265.25,-208 157,-208 157,-176 265.25,-176 265.25,-208"/>
<text xml:space="preserve" text-anchor="start" x="165" y="-194.5" font-family="Helvetica,sans-Serif" font-size="10.00">mcp9808_set_critical</text>
<text xml:space="preserve" text-anchor="middle" x="211.12" y="-182.5" font-family="Helvetica,sans-Serif" font-size="10.00">_temperature_lock</text>
</a>
</g>
</g>
<!-- Node1&#45;&gt;Node13 -->
<g id="edge13_Node000001_Node000013" class="edge">
<title>Node1&#45;&gt;Node13</title>
<g id="a_edge13_Node000001_Node000013"><a xlink:title=" ">
<path fill="none" stroke="#63b8ff" d="M56.49,-332.53C66.98,-308.58 95.95,-249.36 138.25,-217 140.86,-215.01 143.63,-213.16 146.53,-211.46"/>
<polygon fill="#63b8ff" stroke="#63b8ff" points="148.08,-214.6 155.36,-206.9 144.87,-208.38 148.08,-214.6"/>
</a>
</g>
</g>
<!-- Node14 -->
<g id="Node000014" class="node">
<title>Node14</title>
<g id="a_Node000014"><a xlink:href="group__mcp9808__base__driver.html#ga58f27faaba9c40c339943a779f9bc0eb" target="_top" xlink:title="set resolution">
<polygon fill="white" stroke="#666666" points="272,-158 150.25,-158 150.25,-138 272,-138 272,-158"/>
<text xml:space="preserve" text-anchor="middle" x="211.12" y="-144.5" font-family="Helvetica,sans-Serif" font-size="10.00">mcp9808_set_resolution</text>
</a>
</g>
</g>
<!-- Node1&#45;&gt;Node14 -->
<g id="edge14_Node000001_Node000014" class="edge">
<title>Node1&#45;&gt;Node14</title>
<g id="a_edge14_Node000001_Node000014"><a xlink:title=" ">
<path fill="none" stroke="#63b8ff" d="M54.03,-332.82C60.23,-302.57 82.76,-212.53 138.25,-167 139.56,-165.93 140.92,-164.91 142.33,-163.95"/>
<polygon fill="#63b8ff" stroke="#63b8ff" points="143.87,-167.11 150.88,-159.17 140.45,-161 143.87,-167.11"/>
</a>
</g>
</g>
<!-- Node15 -->
<g id="Node000015" class="node">
<title>Node15</title>
<g id="a_Node000015"><a xlink:href="group__mcp9808__base__driver.html#ga44f5edf11a595b01bf01fdf961872173" target="_top" xlink:title="enable or disable shutdown">
<polygon fill="white" stroke="#666666" points="272,-120 150.25,-120 150.25,-100 272,-100 272,-120"/>
<text xml:space="preserve" text-anchor="middle" x="211.12" y="-106.5" font-family="Helvetica,sans-Serif" font-size="10.00">mcp9808_set_shutdown</text>
</a>
</g>
</g>
<!-- Node1&#45;&gt;Node15 -->
<g id="edge15_Node000001_Node000015" class="edge">
<title>Node1&#45;&gt;Node15</title>
<g id="a_edge15_Node000001_Node000015"><a xlink:title=" ">
<path fill="none" stroke="#63b8ff" d="M53.08,-332.68C56.83,-298.2 73.7,-185.99 138.25,-129 139.34,-128.04 140.47,-127.13 141.64,-126.26"/>
<polygon fill="#63b8ff" stroke="#63b8ff" points="143.19,-129.41 149.94,-121.24 139.57,-123.42 143.19,-129.41"/>
</a>
</g>
</g>
<!-- Node16 -->
<g id="Node000016" class="node">
<title>Node16</title>
<g id="a_Node000016"><a xlink:href="group__mcp9808__base__driver.html#gabf7c333da8166d338d6d939d5bd4a58b" target="_top" xlink:title="set temperature threshold hysteresis">
<polygon fill="white" stroke="#666666" points="276.88,-82 145.38,-82 145.38,-50 276.88,-50 276.88,-82"/>
<text xml:space="preserve" text-anchor="start" x="153.38" y="-68.5" font-family="Helvetica,sans-Serif" font-size="10.00">mcp9808_set_temperature</text>
<text xml:space="preserve" text-anchor="middle" x="211.12" y="-56.5" font-family="Helvetica,sans-Serif" font-size="10.00">_threshold_hysteresis</text>
</a>
</g>
</g>
<!-- Node1&#45;&gt;Node16 -->
<g id="edge16_Node000001_Node000016" class="edge">
<title>Node1&#45;&gt;Node16</title>
<g id="a_edge16_Node000001_Node000016"><a xlink:title=" ">
<path fill="none" stroke="#63b8ff" d="M52.56,-332.71C54.69,-294.96 67.17,-162.46 138.25,-91 138.86,-90.39 139.49,-89.79 140.13,-89.2"/>
<polygon fill="#63b8ff" stroke="#63b8ff" points="142.09,-92.1 147.99,-83.3 137.89,-86.5 142.09,-92.1"/>
</a>
</g>
</g>
<!-- Node17 -->
<g id="Node000017" class="node">
<title>Node17</title>
<g id="a_Node000017"><a xlink:href="group__mcp9808__base__driver.html#gaac5c1a227eefefb73b923336c14e3eb7" target="_top" xlink:title="enable or disable temperature threshold lock">
<polygon fill="white" stroke="#666666" points="276.88,-32 145.38,-32 145.38,0 276.88,0 276.88,-32"/>
<text xml:space="preserve" text-anchor="start" x="153.38" y="-18.5" font-family="Helvetica,sans-Serif" font-size="10.00">mcp9808_set_temperature</text>
<text xml:space="preserve" text-anchor="middle" x="211.12" y="-6.5" font-family="Helvetica,sans-Serif" font-size="10.00">_threshold_lock</text>
</a>
</g>
</g>
<!-- Node1&#45;&gt;Node17 -->
<g id="edge17_Node000001_Node000017" class="edge">
<title>Node1&#45;&gt;Node17</title>
<g id="a_edge17_Node000001_Node000017"><a xlink:title=" ">
<path fill="none" stroke="#63b8ff" d="M51.87,-332.52C51.44,-290.02 55.51,-128.59 138.25,-41 138.73,-40.49 139.22,-39.99 139.73,-39.5"/>
<polygon fill="#63b8ff" stroke="#63b8ff" points="141.81,-42.31 147.49,-33.37 137.47,-36.82 141.81,-42.31"/>
</a>
</g>
</g>
<!-- Node10&#45;&gt;Node4 -->
<g id="edge10_Node000010_Node000004" class="edge">
<title>Node10&#45;&gt;Node4</title>
<g id="a_edge10_Node000010_Node000004"><a xlink:title=" ">
<path fill="none" stroke="#63b8ff" d="M267.92,-334.42C273.53,-336.94 278.99,-339.79 284,-343 316.99,-364.14 347.01,-398.28 365.36,-421.64"/>
<polygon fill="#63b8ff" stroke="#63b8ff" points="362.47,-423.62 371.34,-429.42 368.02,-419.36 362.47,-423.62"/>
</a>
</g>
</g>
</g>
</svg>
